<svg width="512" height="512" viewBox="0 0 512 512" fill="none" xmlns="http://www.w3.org/2000/svg">
  <rect width="512" height="512" rx="96" fill="#F5F4F1" stroke="#E5E5E2" stroke-width="2"/>
  <svg x="60" y="50" width="340" height="390" viewBox="270 570 210 240">
    <path d="M314.585 764.122C332.389 782.364 355.172 792.202 382.297 793.357C383.93 793.437 385.563 793.477 387.196 793.477C405.518 793.477 420.813 788.936 433.997 779.576C447.141 770.256 456.939 757.908 463.67 742.135C447.3 758.267 426.309 764.719 401.575 761.134C376.521 757.51 357.243 742.812 345.892 718.556C332.31 689.559 329.999 657.097 339.041 622.126C342.865 607.429 349.556 596.316 359.514 588.151C361.545 586.478 363.656 585.044 365.807 583.889C365.528 583.929 365.249 583.969 364.971 584.048C331.951 590.023 308.451 608.743 295.108 639.572C286.385 659.846 283.956 682.071 287.7 707.602C291.006 730.266 300.087 749.265 314.585 764.122Z" fill="#0008CF"/>
    <path d="M411.69 598.23C417.705 607.033 422.086 617.189 425.113 629.338C426.308 634.157 427.144 639.056 427.981 643.756C428.14 644.712 428.339 645.708 428.499 646.704C428.618 646.624 428.738 646.504 428.857 646.425L460.921 621.65C458.849 618.902 456.898 616.273 454.747 613.923C437.58 594.964 417.027 584.409 393.607 582.457C402.609 586.161 408.185 593.132 411.69 598.23Z" fill="#0008CF"/>
  </svg>
  <circle cx="420" cy="410" r="20" fill="#0008CF"/>
</svg>
