<svg width="783" height="444" viewBox="0 0 783 444" fill="none" xmlns="http://www.w3.org/2000/svg">
<path d="M209.569 284.787L265.337 48.8183L242.62 33.3591L333.047 0L263.272 291.282C261.649 298.605 262.055 303.487 266.923 303.487C276.659 303.487 293.697 278.264 312.358 236.362C290.857 306.741 260.256 338.558 236.986 338.558C213.715 338.558 201.456 318.96 209.569 284.787Z" fill="#0008CF"/>
<path d="M28.5851 309.122C46.3893 327.364 69.1723 337.202 96.2968 338.357C97.9298 338.437 99.5629 338.477 101.196 338.477C119.518 338.477 134.813 333.936 147.997 324.576C161.141 315.256 170.939 302.908 177.67 287.135C161.3 303.267 140.309 309.719 115.575 306.134C90.5214 302.51 71.2435 287.812 59.8918 263.556C46.3097 234.559 43.9995 202.097 53.041 167.126C56.8647 152.429 63.5562 141.316 73.5138 133.151C75.5452 131.478 77.6562 130.044 79.807 128.889C79.5282 128.929 79.2494 128.969 78.9706 129.048C45.9512 135.023 22.4513 153.743 9.10808 184.572C0.385221 204.846 -2.04443 227.071 1.69963 252.602C5.00555 275.266 14.0869 294.265 28.5851 309.122Z" fill="#0008CF"/>
<path d="M125.69 143.23C131.705 152.033 136.086 162.189 139.113 174.338C140.308 179.157 141.144 184.056 141.981 188.756C142.14 189.712 142.339 190.708 142.499 191.704C142.618 191.624 142.738 191.504 142.857 191.425L174.921 166.65C172.849 163.902 170.898 161.273 168.747 158.923C151.58 139.964 131.027 129.409 107.607 127.457C116.609 131.161 122.185 138.132 125.69 143.23Z" fill="#0008CF"/>
<path d="M462.031 305.858C414.513 299.644 386.194 261.726 389.858 209.269L390.057 197.878C390.894 184.415 393.204 172.346 397.067 160.995C400.453 151.117 404.635 143.708 410.291 137.574C412.92 134.707 415.867 132.317 419.014 130.445C388.265 137.256 365.92 154.781 352.577 182.623C342.181 204.251 339.154 228.667 343.535 255.233C348.594 285.983 364.008 309.204 389.34 324.299C409.136 336.089 432.118 340.789 457.729 338.28C474.776 336.607 488.797 331.071 500.626 321.352C510.624 313.147 518.311 302.99 524.126 290.125C516.598 296.418 507.875 300.959 497.997 303.707C486.885 306.814 474.856 307.531 461.991 305.818L462.031 305.858Z" fill="#0008CF"/>
<path d="M465.255 138.649C466.928 140.601 468.122 142.194 469.158 143.827C477.841 157.688 481.028 168.522 482.74 183.538C481.944 198.156 442.711 202.617 442.711 202.617H531.891C531.054 173.621 510.144 144.266 481.864 133.83C471.548 130.006 460.714 127.895 449.601 127.457C455.496 129.648 460.834 133.432 465.255 138.61V138.649Z" fill="#0008CF"/>
<path d="M702.373 170.685C709.941 191.357 714.84 214.618 717.708 243.893C718.305 249.828 718.624 255.763 718.942 260.981C719.062 263.171 719.182 265.242 719.341 267.154V267.433V267.712C719.102 283.564 718.465 297.824 713.127 311.446C710.538 318.058 707.352 323.713 703.687 328.334C701.377 331.241 698.748 333.671 695.921 335.663C697.753 335.264 699.585 334.826 701.377 334.348C729.298 327.019 749.931 310.609 762.597 285.516C770.284 270.301 774.187 253.214 774.904 231.705C774.665 229.236 774.426 226.726 774.227 224.257C773.749 218.641 773.311 213.304 772.355 208.126C765.385 170.167 744.952 146.03 709.941 134.28C696.319 129.7 682.338 127.27 668.358 127.469C673.616 129.381 678.594 132.767 683.254 137.586C693.132 147.822 698.43 160.09 702.333 170.725L702.373 170.685Z" fill="#0008CF"/>
<path d="M624.303 332.155C637.766 336.577 651.547 338.887 665.368 338.966C661.744 337.493 658.279 335.382 655.092 332.673C643.581 322.835 637.607 310.01 632.827 297.583C625.578 278.703 620.719 257.473 617.572 230.747C615.7 214.974 614.186 198.007 615.859 180.919C616.855 170.404 619.046 156.703 626.892 144.076C630.477 138.341 634.739 133.88 639.638 130.773C636.213 131.57 632.747 132.486 629.322 133.521C599.808 142.563 579.255 161.562 568.222 189.921C558.424 215.134 557.07 241.701 564.199 268.825C572.524 300.45 592.758 321.76 624.303 332.155Z" fill="#0008CF"/>
<path d="M735.734 416.451C728.351 416.967 721.764 416.287 715.973 414.409C710.226 412.48 705.547 409.502 701.937 405.474C698.373 401.443 696.175 396.532 695.342 390.74L695.201 389.751L707.98 388.858L708.191 389.842C708.95 393.213 710.553 396.073 713 398.423C715.444 400.725 718.584 402.432 722.418 403.543C726.297 404.603 730.698 404.961 735.62 404.617C740.542 404.273 744.753 403.289 748.254 401.665C751.752 399.993 754.38 397.788 756.138 395.05C757.944 392.308 758.725 389.185 758.48 385.683L758.475 385.612C758.16 381.116 756.347 377.628 753.035 375.149C749.722 372.67 744.486 370.896 737.325 369.827L725.792 368.137C715.651 366.611 708.006 363.721 702.857 359.468C697.753 355.164 694.939 349.273 694.416 341.795L694.411 341.724C694.065 336.089 695.281 331.034 698.059 326.56C700.834 322.038 704.835 318.381 710.062 315.59C715.332 312.749 721.47 311.083 728.474 310.593C735.148 310.126 741.195 310.916 746.617 312.963C752.036 314.962 756.456 317.982 759.878 322.023C763.347 326.061 765.466 330.858 766.235 336.417L766.38 337.477L753.602 338.37L753.39 337.386C752.625 333.92 751.138 331.028 748.931 328.709C746.724 326.391 743.918 324.684 740.512 323.591C737.154 322.494 733.298 322.098 728.943 322.402C724.4 322.72 720.472 323.684 717.161 325.295C713.849 326.906 711.333 329.008 709.612 331.601C707.938 334.192 707.217 337.143 707.449 340.456L707.454 340.527C707.745 344.692 709.57 348.012 712.93 350.488C716.29 352.964 721.357 354.702 728.133 355.703L739.665 357.393C746.776 358.418 752.596 360.032 757.125 362.236C761.702 364.437 765.139 367.335 767.436 370.932C769.776 374.478 771.128 378.854 771.492 384.06L771.497 384.131C771.921 390.189 770.75 395.55 767.985 400.214C765.267 404.874 761.153 408.61 755.642 411.421C750.179 414.228 743.543 415.905 735.734 416.451Z" fill="black"/>
<path d="M620.609 422.786L619.82 411.499L650.204 409.374C657.871 408.838 663.586 406.916 667.35 403.609C671.158 400.252 672.857 395.639 672.446 389.77L672.436 389.628C672.158 385.652 671.004 382.404 668.973 379.883C666.942 377.361 664.034 375.567 660.25 374.5C656.513 373.43 651.923 373.085 646.48 373.466L617.303 375.506L616.533 364.502L642.09 362.715C649.663 362.186 655.334 360.315 659.104 357.102C662.922 353.887 664.637 349.51 664.25 343.973L664.24 343.831C663.886 338.767 661.936 335.027 658.391 332.612C654.842 330.149 649.967 329.135 643.767 329.568L614.235 331.633L613.446 320.346L645.889 318.077C651.757 317.667 656.967 318.372 661.517 320.194C666.068 322.016 669.707 324.758 672.436 328.419C675.166 332.081 676.709 336.467 677.066 341.579L677.076 341.721C677.324 345.27 676.756 348.71 675.372 352.041C673.988 355.372 671.978 358.247 669.341 360.667C666.701 363.039 663.624 364.61 660.111 365.379L660.131 365.663C665.093 365.886 669.428 367.01 673.136 369.033C676.845 371.057 679.771 373.801 681.916 377.266C684.057 380.683 685.287 384.663 685.604 389.206L685.614 389.348C686.035 395.359 684.999 400.615 682.508 405.117C680.061 409.569 676.339 413.135 671.343 415.814C666.343 418.447 660.199 420.018 652.91 420.528L620.609 422.786ZM614.22 423.233L607.056 320.792L619.835 319.899L626.998 422.339L614.22 423.233Z" fill="black"/>
<path d="M513.625 430.269L544.584 325.162L554.026 324.502L555.098 339.836L551.833 340.065L527.042 429.331L513.625 430.269ZM529.039 399.728L532.539 388.569L577.973 385.391L582.992 395.955L529.039 399.728ZM589.018 424.997L552.117 340.045L551.044 324.711L557.221 324.279L602.435 424.059L589.018 424.997Z" fill="black"/>
<path d="M445.545 435.029L438.381 332.589L451.16 331.695L457.519 422.635L506.929 419.18L507.733 430.681L445.545 435.029Z" fill="black"/>
<path d="M707.391 380.468C711.566 380.176 715.319 382.999 716.198 387.09L716.393 387.993L716.562 388.648C716.996 390.112 717.725 391.29 718.784 392.317C720.077 393.53 721.943 394.635 724.684 395.439C727.462 396.191 730.871 396.518 735.031 396.227L735.618 404.615C730.696 404.959 726.295 404.601 722.417 403.541C718.582 402.43 715.442 400.723 712.998 398.421C710.551 396.071 708.948 393.211 708.189 389.84L707.978 388.856L695.2 389.749L695.34 390.738C696.173 396.53 698.371 401.441 701.935 405.472C705.546 409.5 710.224 412.478 715.971 414.407C721.762 416.285 728.349 416.965 735.732 416.449C743.541 415.903 750.177 414.226 755.64 411.419C761.151 408.608 765.265 404.872 767.983 400.212C770.748 395.548 771.919 390.187 771.495 384.129L771.491 384.058C771.126 378.852 769.774 374.476 767.434 370.93C765.137 367.333 761.7 364.435 757.124 362.234C752.594 360.03 746.774 358.416 739.664 357.391L728.131 355.701C721.355 354.7 716.288 352.962 712.928 350.486C709.569 348.01 707.743 344.69 707.452 340.525L707.447 340.454C707.215 337.141 707.936 334.19 709.61 331.599C711.331 329.006 713.847 326.904 717.159 325.293C720.471 323.682 724.398 322.718 728.942 322.4C733.296 322.096 737.152 322.492 740.51 323.589C743.916 324.682 746.722 326.389 748.929 328.707C751.136 331.026 752.623 333.918 753.388 337.384L753.6 338.368L766.378 337.475L766.233 336.415C765.464 330.856 763.345 326.058 759.876 322.021C756.454 317.98 752.034 314.96 746.615 312.961C741.193 310.914 735.146 310.124 728.472 310.591C721.468 311.081 715.33 312.747 710.06 315.588C704.833 318.379 700.832 322.036 698.057 326.558C695.279 331.032 694.063 336.087 694.409 341.722L694.414 341.793C694.937 349.271 697.751 355.162 702.855 359.466C708.004 363.719 715.649 366.609 725.79 368.135L737.323 369.825C744.484 370.894 749.721 372.668 753.033 375.147C756.345 377.626 758.158 381.114 758.473 385.61L758.478 385.681C758.723 389.183 757.942 392.306 756.136 395.048C754.378 397.786 751.75 399.991 748.252 401.663C744.751 403.287 740.54 404.271 735.618 404.615L735.031 396.227C739.181 395.937 742.326 395.132 744.674 394.049C747.003 392.928 748.302 391.687 749.061 390.505L749.113 390.424C749.832 389.333 750.216 388.066 750.09 386.268L750.085 386.197C749.924 383.892 749.161 382.752 747.994 381.879C746.348 380.646 742.766 379.138 736.104 378.142L736.105 378.144L724.572 376.454L724.539 376.451C713.633 374.81 704.294 371.561 697.5 365.948C697.479 365.93 697.457 365.913 697.436 365.895C690.372 359.939 686.687 351.821 686.026 342.38L686.016 342.238C685.572 335.01 687.141 328.213 690.89 322.158C694.307 316.59 699.072 312.166 704.917 308.825L706.098 308.172C712.579 304.683 719.905 302.761 727.886 302.203C735.559 301.667 742.822 302.554 749.524 305.072C756.176 307.526 761.85 311.34 766.292 316.587L766.29 316.587C770.561 321.574 773.236 327.427 774.357 333.945L774.562 335.261L774.563 335.272L774.708 336.332C775.024 338.638 774.371 340.972 772.903 342.777C771.436 344.583 769.286 345.7 766.965 345.862L754.186 346.756C750.012 347.048 746.259 344.225 745.379 340.134L745.177 339.196C744.705 337.061 743.878 335.596 742.84 334.505C741.713 333.321 740.165 332.309 737.939 331.594C737.926 331.59 737.913 331.587 737.9 331.583C735.783 330.892 733.048 330.542 729.528 330.788C725.813 331.048 722.982 331.813 720.838 332.856C718.658 333.916 717.403 335.083 716.648 336.2C716.055 337.134 715.721 338.243 715.835 339.867L715.84 339.938C715.959 341.645 716.544 342.704 717.918 343.717C719.675 345.012 723.168 346.468 729.349 347.382L740.86 349.068L740.862 349.068C748.482 350.166 755.205 351.958 760.764 354.656L760.767 354.656C766.443 357.385 771.166 361.206 774.449 366.299L774.452 366.299C777.753 371.299 779.436 377.149 779.878 383.471L779.883 383.542C780.411 391.092 778.956 398.192 775.216 404.499L775.214 404.497C771.574 410.714 766.183 415.473 759.481 418.896L759.483 418.898C752.771 422.348 744.964 424.233 736.319 424.837C728.086 425.413 720.389 424.679 713.378 422.405C713.351 422.396 713.323 422.387 713.296 422.378C706.34 420.043 700.368 416.322 695.674 411.085C695.661 411.07 695.648 411.055 695.635 411.041C690.89 405.673 688.062 399.201 687.017 391.935L687.016 391.921L686.875 390.932C686.547 388.621 687.194 386.279 688.662 384.464C690.129 382.649 692.285 381.524 694.613 381.361L707.391 380.468Z" fill="white"/>
<path d="M685.613 389.348L685.603 389.206C685.285 384.663 684.056 380.682 681.915 377.265C679.77 373.801 676.843 371.057 673.135 369.033C669.427 367.01 665.091 365.886 660.13 365.662L660.11 365.378C663.623 364.61 666.7 363.039 669.34 360.667C671.976 358.247 673.987 355.372 675.371 352.041C676.755 348.71 677.323 345.27 677.075 341.72L677.065 341.578C676.707 336.467 675.164 332.081 672.435 328.419C669.706 324.758 666.066 322.016 661.516 320.194C656.965 318.372 651.756 317.666 645.887 318.077L645.301 309.689C652.185 309.207 658.701 310.01 664.641 312.389C670.52 314.743 675.453 318.398 679.176 323.393C682.982 328.499 684.997 334.476 685.453 340.992L685.463 341.134C685.803 346.004 685.014 350.749 683.137 355.268C682.027 357.938 680.599 360.403 678.873 362.653C683.022 365.239 686.448 368.629 689.038 372.8C692.002 377.531 693.59 382.88 693.991 388.62L694.001 388.762C694.515 396.109 693.268 403.036 689.865 409.188L689.862 409.185C686.543 415.213 681.566 419.872 675.316 423.224C675.298 423.234 675.277 423.243 675.258 423.253C668.971 426.563 661.621 428.347 653.495 428.915L614.805 431.621C610.172 431.945 606.154 428.452 605.83 423.819L598.667 321.379C598.343 316.746 601.836 312.728 606.468 312.404L645.301 309.689L645.887 318.077L607.055 320.792L614.218 423.233L652.909 420.527C660.197 420.018 666.341 418.447 671.341 415.814C676.338 413.134 680.06 409.569 682.507 405.117C684.998 400.615 686.033 395.359 685.613 389.348ZM664.057 390.356L664.047 390.214C663.861 387.553 663.149 386.06 662.423 385.158C661.704 384.266 660.437 383.289 657.966 382.592L657.933 382.583C655.434 381.868 651.894 381.516 647.065 381.853L632.665 382.86L634.009 402.077L649.616 400.986L650.203 409.374L626.208 411.052L623.691 375.059L646.479 373.465C651.922 373.085 656.511 373.43 660.248 374.5C664.032 375.567 666.94 377.361 668.971 379.882C671.002 382.404 672.157 385.652 672.435 389.628L672.445 389.77C672.855 395.638 671.157 400.251 667.349 403.609C663.585 406.916 657.87 408.837 650.203 409.374L649.616 400.986C656.372 400.513 659.982 398.887 661.798 397.291C663.307 395.956 664.317 394.073 664.057 390.356ZM655.861 344.559L655.851 344.417C655.64 341.396 654.673 340.253 653.656 339.561C653.637 339.547 653.616 339.534 653.596 339.521C652.181 338.539 649.459 337.599 644.353 337.956L629.597 338.988L630.723 355.081L641.502 354.327L642.089 362.715L622.921 364.055L620.623 331.186L643.766 329.568C649.966 329.134 654.84 330.149 658.389 332.612C661.935 335.027 663.885 338.767 664.239 343.831L664.249 343.973C664.636 349.51 662.921 353.887 659.103 357.102C655.333 360.314 649.661 362.185 642.089 362.715L641.502 354.327C648.18 353.86 651.804 352.275 653.651 350.701L653.687 350.671C655.197 349.398 656.085 347.764 655.861 344.559Z" fill="white"/>
<path d="M556.633 315.891C560.139 315.646 563.428 317.606 564.879 320.807L610.094 420.587C611.23 423.095 611.065 426.001 609.655 428.366C608.245 430.73 605.767 432.254 603.021 432.446L589.603 433.385C586.049 433.633 582.724 431.613 581.305 428.346L571.252 405.205L541.897 407.258L535.142 431.579C534.189 435.01 531.18 437.47 527.628 437.718L514.21 438.657C511.463 438.849 508.795 437.683 507.07 435.537C505.98 434.182 505.354 432.543 505.236 430.855L507.732 430.681L507.157 422.465L536.518 322.788L536.727 322.167C537.885 319.126 540.711 317.004 543.996 316.774L556.633 315.891ZM544.583 325.162L513.624 430.269L527.041 429.33L535.386 399.284L576.596 396.402L589.017 424.997L602.434 424.058L557.219 324.279L544.583 325.162ZM552.115 340.045L571.995 385.809L538.476 388.153L551.831 340.064L552.115 340.045ZM549.762 378.935L559.545 378.251L553.691 364.777L549.762 378.935Z" fill="white"/>
<path d="M506.927 419.177L457.517 422.632L451.157 331.692L438.379 332.586L445.542 435.026L507.731 430.678L506.927 419.177ZM465.318 413.658L506.34 410.789C510.973 410.465 514.991 413.958 515.315 418.59L515.65 423.382L513.623 430.266L516.119 430.091C516.443 434.724 512.95 438.742 508.317 439.065L446.129 443.414C441.496 443.738 437.478 440.245 437.154 435.613L429.991 333.172C429.667 328.54 433.16 324.522 437.792 324.198L450.571 323.304C455.203 322.98 459.221 326.473 459.545 331.105L465.318 413.658Z" fill="white"/>
</svg>
